<mxfile host="app.diagrams.net" agent="Mozilla/5.0 (Windows NT 10.0; Win64; x64) AppleWebKit/537.36 (KHTML, like Gecko) Chrome/130.0.0.0 YaBrowser/24.12.0.0 Safari/537.36" version="25.0.3">
  <diagram name="Страница — 1" id="Q5MfKWQUMUsDzLhGvu9t">
    <mxGraphModel dx="1386" dy="1936" grid="1" gridSize="10" guides="1" tooltips="1" connect="1" arrows="1" fold="1" page="1" pageScale="1" pageWidth="827" pageHeight="1169" math="0" shadow="0">
      <root>
        <mxCell id="0" />
        <mxCell id="1" parent="0" />
        <mxCell id="00AORRnr6HmbrCj2hi4w-7" style="edgeStyle=orthogonalEdgeStyle;rounded=0;orthogonalLoop=1;jettySize=auto;html=1;exitX=0.5;exitY=1;exitDx=0;exitDy=0;" edge="1" parent="1" source="00AORRnr6HmbrCj2hi4w-2" target="00AORRnr6HmbrCj2hi4w-3">
          <mxGeometry relative="1" as="geometry" />
        </mxCell>
        <mxCell id="00AORRnr6HmbrCj2hi4w-2" value="Начало" style="ellipse;whiteSpace=wrap;html=1;" vertex="1" parent="1">
          <mxGeometry x="852.5" y="-990" width="120" height="80" as="geometry" />
        </mxCell>
        <mxCell id="00AORRnr6HmbrCj2hi4w-8" style="edgeStyle=orthogonalEdgeStyle;rounded=0;orthogonalLoop=1;jettySize=auto;html=1;exitX=0.5;exitY=1;exitDx=0;exitDy=0;entryX=0.5;entryY=0;entryDx=0;entryDy=0;" edge="1" parent="1" source="00AORRnr6HmbrCj2hi4w-3" target="00AORRnr6HmbrCj2hi4w-4">
          <mxGeometry relative="1" as="geometry" />
        </mxCell>
        <mxCell id="00AORRnr6HmbrCj2hi4w-3" value="Ввод координат (x1; y1), (x2; y2), (x3; y3)" style="rounded=1;whiteSpace=wrap;html=1;" vertex="1" parent="1">
          <mxGeometry x="822.5" y="-870" width="180" height="80" as="geometry" />
        </mxCell>
        <mxCell id="00AORRnr6HmbrCj2hi4w-9" style="edgeStyle=orthogonalEdgeStyle;rounded=0;orthogonalLoop=1;jettySize=auto;html=1;exitX=0.5;exitY=1;exitDx=0;exitDy=0;entryX=0.5;entryY=0;entryDx=0;entryDy=0;" edge="1" parent="1" source="00AORRnr6HmbrCj2hi4w-4" target="00AORRnr6HmbrCj2hi4w-5">
          <mxGeometry relative="1" as="geometry" />
        </mxCell>
        <mxCell id="00AORRnr6HmbrCj2hi4w-4" value="Вычисление по формуле:&amp;nbsp;&lt;br&gt;S = 1/2 * |x1*(y2-y3) +x2*(y3-y1) + x3*(y1-y2)|" style="rounded=1;whiteSpace=wrap;html=1;" vertex="1" parent="1">
          <mxGeometry x="780" y="-740" width="265" height="90" as="geometry" />
        </mxCell>
        <mxCell id="00AORRnr6HmbrCj2hi4w-10" style="edgeStyle=orthogonalEdgeStyle;rounded=0;orthogonalLoop=1;jettySize=auto;html=1;exitX=0.5;exitY=1;exitDx=0;exitDy=0;entryX=0.5;entryY=0;entryDx=0;entryDy=0;" edge="1" parent="1" source="00AORRnr6HmbrCj2hi4w-5" target="00AORRnr6HmbrCj2hi4w-6">
          <mxGeometry relative="1" as="geometry" />
        </mxCell>
        <mxCell id="00AORRnr6HmbrCj2hi4w-5" value="Отображение результатов" style="rounded=1;whiteSpace=wrap;html=1;" vertex="1" parent="1">
          <mxGeometry x="852.5" y="-600" width="120" height="60" as="geometry" />
        </mxCell>
        <mxCell id="00AORRnr6HmbrCj2hi4w-6" value="Конец" style="ellipse;whiteSpace=wrap;html=1;" vertex="1" parent="1">
          <mxGeometry x="852.5" y="-490" width="120" height="80" as="geometry" />
        </mxCell>
        <mxCell id="00AORRnr6HmbrCj2hi4w-11" value="" style="shape=image;verticalLabelPosition=bottom;labelBackgroundColor=default;verticalAlign=top;aspect=fixed;imageAspect=0;image=data:image/png,iVBORw0KGgoAAAANSUhEUgAAArMAAAE+CAIAAAARQw/XAAAgAElEQVR4Ae2cv6ssSXbn9Q/Uf/HMATkDMtrrNvUYQw1rbME1GsYYmjWaltWMsTQyikTG0IwhMYZo5KWx0AOrpRcEPc5AXWPoYRGMDEELrnENGc8QtCGjlnMi4vyIyqx7b737I2/Wp2i6siIjTpzzicg434zM+/7swAcCEIAABCAAAQg0An/WDviGAAQgAAEIQAACB5QBkwACEIAABCAAASeAMnAWHEEAAhCAAAQggDJgDkAAAhCAAAQg4ARQBs6CIwhAAAIQgAAEUAbMAQhAAAIQgAAEnADKwFlwBAEIQAACEIAAyoA5AAEIQAACEICAE0AZOAuOIAABCEAAAhBAGTAHIAABCEAAAhBwAigDZ8ERBCAAAQhAAAIoA+YABCAAAQhAAAJOAGXgLDiCAAQgAAEIQABlwByAAAQgAAEIQMAJvKAyuB2vNpOf4dr94wgCEIAABCAAgeckgDJ4Ttr0BQEIQAACEFg6gZdXBtvxdumQ8A8CEIAABCBwMQRQBhcz1AQKAQhAAAIQuAeBV6EMfvj6Z/0LCeldhP+6/e7vPt9++BOt9Oanf/np8Ns/vQvB73d6ZrevZf/x7edvpOSj3f7HUO348PZ3f//51UfF7k8+/HT43e3hcPvNz6Xxm8++tS7e/ZPa++DL/X9WG+/+8PUXteGbn/63L8Z/sbqH23FbgvngV9/nHj1Mj+6/bvfj8OnPzIftF+OfTvucbfILAhCAAAQg8DACr0IZ7AfJpT/56Gdv37Yc6bnzP/fDhyXVaoWqDzYf/fW39pQiK4MfxpLafz7+cIrVD9/+9UfF7pu/aP0WbfHvJbd/9NUftf2P++GDzWbzwZe/ryn7h/ET1Q4//fizL7/4RUnqHw3X9awpg82bL7+LSf6PX4kZ/Vh0pfJPPny7/ezzT//yp6pnNjx/OTVunIMABCAAgfcj8PLKoGVD+X7zF28/3X2T7vcPcpf+iWTer/QWu6iETcud7779TLPwz7+2Vu/+5euSmb/8XU28QRn8uN9Jvn9zhyw4/PCPH6tDn3xtt/vv/vT1/6p3+T/8g569klckyvEHf9O2H/74lXTwwRff/kcdmR9//6Uqh+J/3TP4/LPPN5vNF//s0uD7X32w+eDTT/+7dNuiO9z+37+P+w213599fVLTvN+MoDUEIAABCFw2gZdXBnpH/vbtz96+/YtyS7zZfDjYtryMzr99/Xaz2fz8G90DyMrgpty+f/z1v6VhlCy72Wx+We/JTRnUu/nOfmpafnyv9+9vYubOtb7/SjYqPhh+O8qDhPAcYb+TKPJtffH5bXGybAMMv/3m081m84tv2mOG/fBm88Gvvil/yWnKIHfaUGyG9lykP89vCEAAAhCAwHsSeHllEJNou93ffPyPflf87p/k9vrN35b79awMrvU5Q91OCCh+/6UoA72nPxwOVRl8+JE+HtiO/+41fW9fGrQmVXB87q8SeIt69OMfhvqwYRMFxOw/0mA7AVUZXL/79rPNZvPpN7q18OPvvnyz+eCrP9bmURm8+9fvxr/76svPtvYkZYMyOBoOCiAAAQhA4LEILEsZHA4/fvdLzdD2tuDh8P3fyl345/9U7q6nlMHx7vqkMvjF5/qi4JtPwgsG766//upXX/l//7iXbqoy+CK9B9Ahr28byIuMwx/soUBN7W//x+A2m/1vdWOjKYODqoGigTRqiaJTBrf1XYc3P337s0+/+NVXX/3PT3QzhD2DbjD4CQEIQAACj0Zg+cqgbOxvx5sSc1YGNT3XO2+j8qffyPOH46cJP16XG31/H9CapIMfv/tC2r+xNxXSWfnxw9d/pW8d/loNfjh837TB/m+k5dt/8D2Prq0pg8OP3335ZrP5q69/ePft55siEbIyKO8khkcV9cEKewYdU35CAAIQgMDjEViWMnj3u7pF/+lv6/P3H//5C9kxiM/jdU+h7bfXVCpvFP5XpdIeSXxgfw5g7xlISq9/OPDxV39syXyC5o/7nd6cf/j5N/boIbyB+P2v9TVGeY/hx+9+KQ5+9LdVG5SdgM2b8OqivET57Ze/qW8vujI4HPR9iLfDToSBvoWQlUF5VvKzv/9Ti+y7v1GvUAYTQ0YRBCAAAQg8DoGXVwb2BuJHf6453/5w4N++/fKzj/XfEojb9XnP4HA4/Ps3n9aG8a8W33z8a7uNb+8Z1CcU9c8TNm8+iS8c9Dj/cz/8paR8+XPJD/NfLZa/Pti0bYz66MGcfPfdL+sbCNrw7dvyh5Tt+UhUBgf7S8X6SkRWBtWy/MmGvqH5k092X+o/hsDThH64+A0BCEAAAo9F4OWVQZUDNQeHf6ToD8Mb+TvGT776fXt/X4I+UgaHw+Hdn77Zfdr+tOEnH/1iGK/t3zLQNt2/dHSo/6RB/0cQHdT4Dyi9+enbXwzf/OuPhx+/L/98wke/rnsAh8OhbCFs/JnCuz/9drB/fuAnH24//7tvf2hBJGVwKM9KNm2PJCuDw+HdH77+/K9UHf35x/JvHFWtgDLohoqfEIAABCDwaAReUBk8WgwYggAEIAABCEDgsQigDB6LJHYgAAEIQAACayCAMljDKBIDBCAAAQhA4LEIoAweiyR2IAABCEAAAmsggDJYwygSAwQgAAEIQOCxCKAMHoskdiAAAQhAAAJrIIAyWMMoEgMEIAABCEDgsQigDB6LJHYgAAEIQAACayCAMljDKBIDBCAAAQhA4LEIoAweiyR2IAABCEAAAmsggDJYwygSAwQgAAEIQOCxCKAMHoskdiAAAQhAAAJrIIAyWMMoEgMEIAABCEDgsQigDB6LJHYgAAEIQAACayCAMljDKBIDBCAAAQhA4LEIoAweiyR2IAABCEAAAmsggDJYwygSAwQgAAEIQOCxCKAMHoskdiAAAQhAAAJrIIAyWMMoEgMEIAABCEDgsQigDB6LJHYgAAEIQAACayCAMljDKBIDBCAAAQhA4LEIoAweiyR2IAABCEAAAmsggDJYwygSAwQgAAEIQOCxCKAMHoskdiAAAQhAAAJrIIAyWMMoEgMEIAABCEDgsQi8oDLYD5vuM+wfKyzsQAACEIAABCBwFoEXVgbD9Vle0wgCEIAABCAAgachgDJ4Gq5YhQAEIAABCLxOAgtWBtfxaUN40BDLr8Zb434zbjfb8ab8Lo8qQiur1g5ux60/zNjtD9J8szV7+rNtaYQHH6HH/W4jLWqP0/1qndpPs9Y8qN+345U7Uo9aL9J8tz94yJPdlUbxVLa52x8OUrIdb0PUCc60n9qvM1GHS80ai1ISD8OndNFa1X7DeT0Uy8mBWqEYdB4eVEWh9XIXhzJ2rVFrIqbasbQKgxjLe0+kmo1UwBXmRmetDlZmrt4M1we1MBVpDZgvCEAAAosjsGxlUNbcsHbrOuvLvWaptux6JtA1OqerDnxqeNgPpbJ3FPNZShXSMKTt7dW2pUDtQSxsPOfdjINJDTnlngd/Yl9SLDGGLsReiyWFr0nUe9euW0rrbRZloEKmSqlEYM7P62Fztd02Z9Tnml9dGVxttynHK3zXWMeeGKg2cIGF5nin1KPwYfI60lpQqDWfA6XQqonbmVU75YNe/IjD3SZG7cIUQ6xziFNCTAg0G3WUQRxdjiEAgddB4IWVgebR9r+W/wo5yQqeCUoWSSuyVgslNStoZgpL88Q4xPyRTtc0FhOSu1Fqhrb73WYYW04q3uw2w27mbljvWVvmjr32uTP23meddusvt8BlOyFYCiW9zaoMEuGALhgp99bVz+thsxvHK8uImvZ2g99V34zbq3HchaQrJcOg+xNq9dgTLe7zcfMg4K0iqflco0sCqLWyZBybh+OItPeq92QOiwdyYkqIcXOmecc3BCAAgddF4IWVQciUsiLbzXHJfPUmz9ZuWev7G829pSXNBNsrv6evI6G5pKqPohhOrN1iJD0jkITUf+rtpiiDa0kY4QZ6vDVvS/fVYDUR4rV54imnFMU0FpJ9rd9KQr9myePqbdrTBKvbl0z6KcpgHxLh7Xi1HW9C7lRlICE3KWZM2g26eBI/rjmOhlJ8y25080E2MMJWv8XiHkrzthkwbyppjm68egGn07IFUII6MSXEpUDDPOQAAhCAwCsisBxl0C2pIfPZ2i1r/WllsNleSe5Iz72PR+PU2l0yQcsuemveklxvSLOgu3076pMF87bc1lui6lOOWeuz+PMrA011FnJI/KoMdBdBzxYdEAOpJTZY+0Hgx4jisbIqQAIlAyEHMbWLePHRFCdVGRwPR6cO65sfwVSTU96Vi4kYTsnrTXxo7032haC8O7cXjk7NrlCNQwhAAAJLJbAgZRAzYsoQnkVC0qpAQ0nLBJrnToqDVvN4UMqiHz2Jx139qgwktWzHm3I/XZJf6T34Ji27n2Ys586SDsMteLxvjkaOs10o6W32OwQpB3eOhZ9VGciTi/L2omblUKEqA03h5U1J2fyPvcfjAkFFho+pcdCDbmjCzxqdlISHFx3YUL+fQg2pdpO9Emfax5+V5DohqBNTQoyjDBQx/4MABF4vgeUoA8k3djsYklzMteUm0u5u88tfIStI85M7B7lCfdFMVvzaKjjTpyJ/K60pA02cV8dvRaTUoj3aDWicMKna5BuICYvF1Tkm6c3I9DZLthYo9R+QkArtEUCqnPxsykCznb1pOKEMShreyrMGjWDuPQMTBHYQSSS9oidCNXGsvHOQA095OsyBpAxUlhlGCccwdg4EAec9Frlm8zM7IHKtvQwhxrIyCJOq74nfEIAABJZJ4IWVQbtTk++2cEviSQt3Xsd1qW3t4oocs4Le4YVEOAG/pMBiSPKl9GKJM//UTNC6tOwrgqAmWq0w8QQ9NByuQ0JN7qTEPKEMdvvgat4LCfYTsXCD27oqvez9qX+8hw52kp+mDArPSjsE0vYM6huR1WaMSI7jZ4JSc1G+gyfaKtH27RMdrM3Vb34jxr1OUgNiKpzSlN88yRijA0EZlB2a0mQ7Cro2RTs/Yy8og0STHxCAwGsk8ILK4DXiem6f423r+/Uds/X7WaI1BCAAAQismgDKYNHDizJY9PDgHAQgAIE1EkAZLHpUUQaLHh6cgwAEILBGAiiDRY8qymDRw4NzEIAABNZIAGWwxlElJghAAAIQgMC5BFAG55KjHQQgAAEIQGCNBFAGaxxVYoIABCAAAQicSwBlcC452kEAAhCAAATWSABlsMZRJSYIQAACEIDAuQRQBueSox0EIAABCEBgjQRQBmscVWKCAAQgAAEInEsAZXAuOdpBAAIQgAAE1kgAZbDGUSUmCEAAAhCAwLkEUAbnkqMdBCAAAQhAYI0EUAZrHFViggAEIAABCJxLAGVwLjnaQQACEIAABNZIAGWwxlElJghAAAIQgMC5BFAG55KjHQQgAAEIQGCNBFAGaxxVYoIABCAAAQicSwBlcC452kEAAhCAAATWSABlsMZRJSYIQAACEIDAuQRQBueSox0EIAABCEBgjQRQBmscVWKCAAQgAAEInEsAZXAuOdpBAAIQgAAE1kgAZbDGUSUmCEAAAhCAwLkElq4MbsftZrc/K7r9sImf7XhzlpmLaCSstuPtRcR6SUHud5vNFeN6SUNOrBB4DALLVQayqJXPeyiD4bpCEoWxGc6TGI/BedE2BPWZkBcdF84dDrfjFZqPiQABCDyMwFKVwfVQEvl7JC25DzZlcDjshw3bBpOTAzKTWNZS2C6ltcRDHBCAwJMTWKoyaIE/mjK4GbeuDORGKn7yRnp8DNGLCd17aE1P3GdLd/bxvYrY3DtNvh3yfV5/zycW2v7wNByzpj7kXqJUaoivBzN4OByizeKtW5Ac0z7Nh2ZlDlr1PwTuNLTtZENpFVSdjlfrMXooFnLmk7PtUy1Et8upZqo5fzgIq+BYh87rNT5uM82QEObRnbraNNfq9tVsv/24q7Q1JgrEbJWNsWg/BdhJ5BAMhxCAAASmCFyIMujW2fxTltS2vuvy2uXCkKIkMZSzfX7q4Fq6TXlrP5iY0I6q5eiA2InuxeNy7t7KIGXN3o75axGVEo9LPG9YxKdt/KkJuKXSU9Ck3014iSE1PISUnCBIK8Ne023Ldu5h8TgSvhkHe6qe/S9UzaaFXw+k9xaO8o8+x8rqvz98yVhmxtf8LCFkh+f6FcstZDHgrVRL2US6HkpQ+1323yqk6RRD4RgCEIDANIGVK4N2W7XJLxnkNBmyQp918j10zC7HNSNgWdbL0uwLejyf039KivnU0bIeE8a0D8lajTS2yn6kHOx7BuK25+Z8w1oM+J3osRuhROznlxi8oRgyCXXkdpJNo29sBOPqySzh3JGSvI8yKKzGJgEzLt0ziAn7aIBa/TzHirQ6nhJh7h31m57ymICbH8rWc+krONkT84ocQQACEJggsHJl4JlAlmBLdZquXDWkmy1vUnBZ6pKfvlifXm1tHQ+3esWc3vC1ruvmhPrWyup327foXNWzbdEXH8InWPN7fd0n1xvg6T/NEPsxZLF5tQ2s1O2QwEoYRUNoj70FqeDQ5GyLpTRNJZLnSr6ULsxts9kqu0HNzSFqPbQRLJsQfjqEZjYtgnBgATY3fARDLVdOoTDPhKnx1cpuMEqZk/16kzzxMk93Jc2HNklUaTbIXpcjCEAAArMELkYZpLv/lm8KFlmdS3acSh4hJ4WE1543T4N1ARGVgWTBrE6mc3m6Dc2u5tvBlJMsipbbmmslV1nSbcX1uw/ZlEFKP5bAQuuWt3oLUsWh9f6XfZdmPLRNbtdyvz92g0fkQ6LV1GiRnrFn4N626ELAepiY55LZ8ZVq01Oivd8w069FfT3Yvsu0Yzr6Vse5qYfy0x8uaBH/gwAEIDBPAGWQdu9PrPs5pR3lp4A4rcuet3z117rhZ0qKyZ+u03r/124Hs7diUG6Rs7WSSJJLwdViP9xYt7g007T8XRJb2lqIzxeyG2I9lIQwS7/RPYfTua2xjGEXwXJkMq4W3UgnBbqfjU8Kv/0QrwbpMLAN4bdqx71LyndZGZqkwBN/d7i+ZjHf7+14JUJnv3P4yVTzqyvsfobhaA34hgAEIDBP4LUpA81YMZPNh2ZLtlZJDdOqHZNc2Xv39V0W8XYPGhf0iQxhjuR+Q6u4QMvabe/lxWQpZqJ78bicS9nL7wXNiB2IIftXHMQrj8uc1UBiuTupxOyUmmooSvgtiZ6CprF0OyUt++bQgtuFgPNJmxBRdmgYTjgZlEB8h6ZSnZ05GqyP9REWA1bMGhb9WZ9lOLpK3oDPTomC7kS/t+N2O46Dvx1ZVZqPe3kD0SG05yk2OnE6aZizECxIDiAAgcsmsHJl4A+cLcHLeEsKiR9b6OVkTRLlfHuALSvv1MfX3zKPJAdMfUpO9bPbce8P4FNSfKAyCJ3VKMya+uxpoPvZ5v2p+8sSdYuxqJnaYbc7PQmtoS7B1obVWj8EFoc6rGdbv2LmXnsGaeyG65yPddCdRgu/fqv/cRpMb9o3RVj0gfrcZogYmhxfL7QY9UCnxJ39HlVQh6PNoEtKB1fjPmx+HAvfWQgdE35CAAKXSmDpymAp4xIyk7s0URgeJ3u9yUI//cJHknt8M+CxnUn38cG4lB+lqMnC0GgBh3Fj4H7uTI7+ZOGUvfcfHZF3Ub5M9UIZBCAAgUAAZRBgnDicEAHpRrY1nVzxJwtbiwV8Pzzb3d9plMHk6E8WTlDtdnQmatxRNMf/jmachgAELpkAyuCSR99il93puJduJ977YG2Z6SlV1DFsGZejnZXjarMl4m18KDNbkRMQgAAEnADKwFlw9AQEUAZnQpWk/lRy7UyXaAYBCFwIAZTBhQw0YUIAAhCAAATuRQBlcC9MVIIABCAAAQhcCAGUwYUMNGFCAAIQgAAE7kUAZXAvTFSCAAQgAAEIXAgBlMGFDDRhQgACEIAABO5FAGVwL0xUggAEIAABCFwIAZTBhQw0YUIAAhCAAATuRQBlcC9MVIIABCAAAQhcCAGUwYUMNGFCAAIQgAAE7kUAZXAvTFSCAAQgAAEIXAgBlMGFDDRhQgACEIAABO5FAGVwL0xUggAEIAABCFwIAZTBhQw0YUIAAhCAAATuRQBlcC9MVIIABCAAAQhcCAGUwYUMNGFCAAIQgAAE7kUAZXAvTFSCAAQgAAEIXAgBlMGFDDRhQgACEIAABO5FAGVwL0xUggAEIAABCFwIAZTBhQw0YUIAAhCAAATuRQBlcC9MVIIABCAAAQhcCAGUwT0G+nrYbDbb8fYeVakCAQhAAAIQeN0ElqoMbsbtxj7b8eZ8yvud2ZGDByR4FQTSZrc/v3taQgACEIAABF4VgYUqg/1usGx8KyLBfz4Q7+14tRmuSyM5vq8yEGlydqcP9JHqEIAABCAAgcUQWKgyyHz2w8ayez5z96/Y9gHKYL+7t4a42wdqQAACEIAABF4NgbUrA7n1t4cRx8pASuzTthYOh4OUD9eiKurnKr1lEJ9QeKv0BEQfXMSHIPZsQiyG3YjYyh9b9K7KxknzoVMt6sydBo9mZPSnWZZKUt6sFd/K2VruTNruS+/q4VDUmNY0y0cDIQ92bnJ30n1pa97ODZBWyCH8v/gAqgyb8rwDl3UVB0Ka27SxGnZw7FUq6ebMXQ440tipbpVVS+l51twAmXccQAACEHg/Aq9BGcSl8KHRXg+WUEu+b/msJiFfczUxtLNlsW4JUoWC27kZB9MJ4ltLISn5HWIuF6/NkxhOaqLZpYoDOW7OSOtoLWUasRakxqzBBE6zTnP7cEjawt0TCO7DREf1bPStRlq1hUZUxIE7Fgo7ISKNozLQUTC1JBbcnxzC7bizIdkPNiIa9ClckYp7KKV9UF4ze3U9qDR8n/GKQQ3llZo0It30mxsg95AjCEAAAu9FYPHKIOeDh8YqK6ylFl1hLdUdL/2hpM8uB3XDtwfcj5DJjlOLd62Zpvz0lV1SsvkjJv3UPTON9j76KxHzBt3jnH1LeYii+pDzX/XNxUTOnQlX9kF1wG6vAKW5jIhtJKSQe0/CcFTnQ0lwOEYmx8kZ+e2Qe1yp6cnhs5rBByurm0xxKGO1Ew7k+dkMZk+kNJbMDVBrzTcEIACB9ySwaGUgy+v5bxh0N6D98h3W68ZQ1t+yT9Bnl36/QWr6pyqGXBgUidj37nL6dyv1qDigCbU71xKqmap5xd2eamWPBlqUmmZsO6SWmk1VJ9vtVVRUWsfdboZCiTc/SswF3eZqu92o2RZFtSJG+k/hGWy2Hi1SO2hnwnc/dmbnCFdoVLNv8CSouljPrMXCfnrkLQdrcuSAjNeE3LTtJe8j1BRiUwPklTmCAAQg8F4ElqsMZBk9zmoPCjakLm0ny6vd2Nl67SY93xzfknpbdczunkNNaW7lukng/ncru6f/icQgDnl3xb2Je1CLzt0OvXhUR0de3085DUs8Eyk86wlzoNz6l/rXQyeJynbL9kpF3i48fCmdRyNS4jzdJXPTPLcDO+UHM8rAOpprK+Vzwxes+w6EFz7yeN1TGXQDFN3hGAIQgMB7EFioMpDs+74Ln6TJnKVSuo25tgCMJfX2zslaxrKDci78zKkl7QDHU5aiygP+6XvT5Greui/bD6P/vUZIdUduewDhKPhcS0NJdU/pxSEIbtfI+yc19WFB1jpiWdRYI6D7QEFh9GbdkzgcpcdQ4tVCXNWvqfcMpnGlts3DWtj9bFWDD61Ivh91vI67jiVzAxTd4RgCEIDAexBYpjLob/s8QFkipzZgvUY7iotpLeuWb8kuLh06y+lnTJPJiO4fNH+6HkPOSwk7lOvWfWuuG9rt3cbUy7EykF1vkxTSb8u1YnzSYMOi35qe/f5Y3DMR4O7FqMs7EF210JHun2/HcTBPpKNAOMBRaNHhdtyaNG0Rmrfd/naqbMlYCHe8gTiLK1IJHkqxc4iVclBaTV06d7ykU9/Huh3n30C04XbH4gAJK9sP6zzmJwQgAIEHEVikMtDlMjzy1cOSuvSUpYfZUDVB9hb8t6UizT213NJMsxrdsHW5pajSqPxlY/Un1pfTxWDpwno8SjnJVat2Z6axmuX1tPBz2mALqn2rOGhEYnSeeFoWLIGU8mC8HwUN35NTqWmW5awTdkWVuktPE9TTUwMUQ/B+j150SEKkDl/A1YCUpx6NiA2fnY4H0ati6j3GK04b02f1D0aqOyG6bv4UT7bjjRykatFfjiEAAQg8hMAilcFDApiuO/GktlWUhXgqMbTzfE8T6FP4Ua2c+49OUwABCEAAAq+DAMrgdYzTy3t5lzKYeQD/8o7jAQQgAAEIPIgAyuBBuC648h3KQHaz++cLF0yL0CEAAQi8XgIrVQavd0AW6/m8MigvDfCQe7FDh2MQgAAEHkQAZfAgXFSGAAQgAAEIrJwAymDlA0x4EIAABCAAgQcRQBk8CBeVIQABCEAAAisngDJY+QATHgQgAAEIQOBBBFAGD8JFZQhAAAIQgMDKCaAMVj7AhAcBCEAAAhB4EAGUwYNwURkCEIAABCCwcgIog5UPMOFBAAIQgAAEHkQAZfAgXFSGAAQgAAEIrJwAymDlA0x4EIAABCAAgQcRQBk8CBeVIQABCEAAAisngDJY+QATHgQgAAEIQOBBBFAGD8JFZQhAAAIQgMDKCaAMVj7AhAcBCEAAAhB4EAGUwYNwURkCEIAABCCwcgIog5UPMOFBAAIQgAAEHkQAZfAgXFSGAAQgAAEIrJwAymDlA0x4EIAABCAAgQcRQBk8CBeVIQABCEAAAisngDJY+QATHgQgAAEIQOBBBFAGD8JFZQhAAAIQgMDKCSxVGVwPG/tcjbfnjMI+mBBbw/U5VmgDAQhAAAIQuCgCC1UGt+O4r+NwO15tNueIA1EGrgZUavjPixpkgoUABCAAAQjcm8BClUHyX5L60IRCOnPyR1YGh8N+t9nsHm7mZB+chAAEIAABCKyMwAUpg9txa3sPctw+2/SwQrco2tpqYg8AACAASURBVCndY5CSWCfaORwO0VTdk4iPQoqp4z2P4zpxh6PomOZGEjSxYTR7M2432/GmzM/sc5ZW0eEYl7QUI/ZpakwK23Gr0zcs3V4PRlgK1NWpfZoEufYXYokeevMaYGjrOk8KveZB65hBdaNzWGRiBB4Dr2b7p1GbgrfC9LPJcrRjDhQ4/B8CEIDAKyGwfGUgS3BafO9L9sSewX6wpKJLeUsqutzbqetByyXNRAeiMojHJa02U6oZUrrKfudsfThMeFs6jVsdmjIt/esuiOXsmjhLL9nn1Ndc7NrQUntsIpZNGWjSnRsRay7GFGbMvg4gu1fUVcujs0hr0rXw42CJQSOvlMITKPFqu2321Yvs2xG6KMXEmk2JJnd8E0u9sumx32VQsaGHzxEEIACBRRNYrDKoGajeqJ3DMOXaLqcGe56lUk7yGl6hlIVq+8Fv0+VkzOKS70K6cnvlKKZebZreightg80UkZoJJUfpzdKV3rtbxoqOTIVWkll0TyzX5iX2cZekklsMykDdHmcITPVbM/c8Us3Blv6lU3cyoC4cxrB7cT1sdtkTKRkM+L4Lx81KJxJyTPBy1tRJq5BkR+UR5kkt4QsCEIDAqyCwWGVg9GTR91s0K777oN4Xts3xLjWms3Z37tnU7c+nMc1VzX779iwS0pVba0c5/RztGXiCdGUQMnSzIlqk+lwy4j2eJtjdfPE4huzWonvWb+vCq5kf5cCUQW0+R+AspK1379NLrKNm2TwpAmK3Dwn+drzajjcmqqTJ0cdnS2ioPUcyFnVTTlUdmrkpxeD+cwQBCEBgkQSWrwzqvnS6WbwXSlv6+9qy1vsud8slescf06Q1yzd/mkjKim8p06qmA6k563afYLK3wfLjKoO52NVxlyPhdry8fDDsdRuj8LlLGVgscwSceQHmhEPgiWV9vyHdrOvjm1JSO3I7R8pA9ZBWvhn1ycKdTtb+xaarvbhR0Ry0oRTn/S1Xd6ZV5BsCEIDAqyBwgcqgS0v+c34plzrtsx129iajZZfJsa7pavJcSr1SI5mKnrgyyHXUbGglackSpwcl1Sx1heyuzVO12GloUpXBGN7fPK0MRv8bkDkCqd+6Y+9PE2bkVApQ3A8Oa0fiYiMwoQzq/srtuFV94+gCYaWS/ye9nFQG1jz407mXLfILAhCAwLIJLFMZhLfk6lv6bXdXb8tmb8QTa1/6U3F+G0BWc3+fTpp4GqhvIHatY0LK7wBKrhraXwe8zxuIyXNLPDUXWvIrgdh+dUqcOfW6MkhvQhzH7mBDk/YHCy3pzm+uqJ6Ij37OUAbzSHXo/bmS/mx7PNJRGEcVQ0ZG3irQv1YVubBt70wEyBJskCM34xD+XGVKGeTXG63tMTTfWwr2+wnFbwhAAALLIrBMZVAX+nqbbkt8+5M5T2CnYIalv6+mCkCtb8d9/tMDP+VJKDfvbg0lc9sn3lyGtwizAf0Vs4gUNG81S7k6yTqmiYPWX+yuJs52auK7pHYPMMTuhbmdNkk5WH21lxu6wLoUO0sgC5d091/tuxsWo7ixHa/97yqbLKgirP+DSZs2pgzUn8a2AS8hFOy11yZD9dSUMhj2oX6cjT4Zrsa97bIowFitw8ZPCEAAAosisExlsChE63AmvEMwEdDk2cnCicbPVFSUQX3F8pn6nOhGNEGSDhN1KIIABCDwmgmgDF7z6D3A99NpfvLsZOEDunzkqiiDRwaKOQhAAALTBFAG01woXRwBlMHihgSHIACBdRJAGaxzXFcYFcpghYNKSBCAwBIJoAyWOCr4BAEIQAACEHgpAiiDlyJPvxCAAAQgAIElEkAZLHFU8AkCEIAABCDwUgRQBi9Fnn4hAAEIQAACSySAMljiqOATBCAAAQhA4KUIoAxeijz9QgACEIAABJZIAGWwxFHBJwhAAAIQgMBLEUAZvBR5+oUABCAAAQgskQDKYImjgk8QgAAEIACBlyKAMngp8vQLAQhAAAIQWCIBlMESRwWfIAABCEAAAi9FAGXwUuTpFwIQgAAEILBEAiiDJY4KPkEAAhCAAAReigDK4KXI0y8EIAABCEBgiQRQBkscFXyCAAQgAAEIvBQBlMFLkadfCEAAAhCAwBIJoAyWOCr4BAEIQAACEHgpAiiDlyJPvxCAAAQgAIElEkAZLHFU8AkCEIAABCDwUgRQBi9Fnn4hAAEIQAACSySAMljiqOATBCAAAQhA4KUILF8Z7IfNZrPbPxyQNtxMfLbj7cOt0eJxCdyOV5s2EPH4cXvBGgQgAAEIPJjA0pXB7biV3H6uMhiuOyIkoQ7IC/4M0u2c8X1Bz+kaAhCAwJoJLFsZ3IzbzTDsUAZrnoLEBgEIQAACiyKwZGUg9/fD9WH/pMrgWh5W1M9VeMxwPWy6nxtxpn3EN/uU8uhn2epou+WtUf0O98qb7XhjZ9N+hlirPdbyun2ixeXhSuxRrdSa2tYsJ7PBsVR+OBzk1FHINcZYLj11IcSfpUXrXbRd+/jGgHTdw+y7MCzReDNrJw86PRJGc2+wR1AFZvHD+xXfzGDpxZqIh/bRJqd8zsCLc53B4mc16T5o3eiebY9JoRPzgPtymcDN7XjsLcJAl+HIZsOU0Flwz6FR1W6ED2p5esLrJdadKiFXDqdMBec1ojhL9zt7ICXn1GZEkc62Cj7xSuBlSCbdq6PVcPXkG+G+PI5CPG715VLLj9J8BEudMkztijgVptvU69emrE2J1JfUjgDzhdzQ3dHkUMa6g6OFdjXVidSonrp2sg8bW4J0NKPBo+v6jiXa0agpR6NHFmx11U43nxsrO9GmQZ1I9jMNcRxZsRC7PnHVW6f3HGuP7cmOlqsM7HqzgwdCkKW5G4x8TZZrySefjmKbMWna1eTUrOnPMDNKufspc8XNJre7BVRqmpM+q3TNap7ohboRi/X1CPczTcpyxdZ+1UI57syaY15ePIxLRmguJ73HQ10XzJnbcTBxI60MS62ZumtnpesGs61obR08gSv2ZdXkWrramj9SrlR9tb0Zh4ZOTzWXZCwcUfOtLUAWyPWgrp7y+XwfNAxbDnwKFebmg0V7XB7nQDz2JmGgb0Zh5WnDl8UG8FSYbrIO7uwUTTXlUtpu0/jmCyopA3EgzPbgvBqNs9S4yZlu0O/s9LAfDK9elTYhy4QvQJ58ROTq3m7D5VCT9yblyDY6R2EG0PtdHo4a3SmA8YKSSOsYnWqSFYAOVunIr6biUzQix4ZX15bUl116/eCevq5PLdGBy+lLRiqae9HnvOiVRbjN4TgrdOIl8j5YcyvPyU69eTelU0xP/mOhyqCbIjZ1HsLjTmVwXCGUhGmn82C0yR19i/7U6aLDaZdBrFBTrK1Hei5Msjov9cpp2UvqSHkmYH7anC71UmJWO8Nem8tsE8d6sz4L082E2Tf3vSQ4bGfrgfQYoksLd127yyUU3C4Lyph3aJrhE321KnIBD6M8dbL7VynZhTtpqyoHHkhb4xRvu+bruhx+ttanfD7fB7HulmO88bj5oAF0ewkyrC32eOxtxH4daFEG4xhvtaVkGKxCcKbymRkaPVv7LVdEMuu9azLb+eUjZ66HzW5w4R6UwZGp4LzaLBWKRg4TTIc1TgPp4mSn0UO7RmrhM46IdL0dE2QpGXa+gXcqzBSF/YjQ4rFUiACtgRz45DnVJDijra3VPZVBf72H6zH7dvc1Nb9Ep7juVgb7Idwh+JWSVst035WuTSMgvfbogicpUl2I/LbE1uGA92hKB1vPcLhIZZBYq3YL+ebeULqRKO3CyIX1yGz6wNi0q85Iw5LvvY410wOZLnJD5uo4n085wE9ZR2VWXW1z/p6cbR6FXOcVjntoxuXsRu5ItjNmbausHpSMeIrMRC+pOx8pqXn06ZRBC8QhmLEZXPG8HssKch280uR3m6eQpjH3peo2XaS2V3b7Uk3PjK91MeHz+T5In7Ywpaku0yl84toRisthVAbhZNU3zeFyo381CpwmfczzZv9UmIm9TRLFON6I881Iqqg6YJ8n6na8CZfnKVPiT/8Jzpce60ptdqr4ONlpJe+2g/PPOCJFGQiNptpF06jn9wkzk9bsrhsu+RmlB1mOmmW9xvxxX5OYYcKo/SAmpoajCFOB338a0lOTKmbZ0JEq/tPXtU3joyW6oxK7kFMTi4OvS9VnM+62LIp0nWZrPbrplSdtuaUmdhFNTGn35DmOFqgMhNTUp10598USlh5vEoYhriOtgg2MjLdcP2ZEGt5TGbTroRn1bzfiZT4FNfAJbRF8rs1CiUVRMqLbrZm1iJVyi5YdC0a0lV+WZjNYa2Sk1dyOSFj9T+f1asR7dAihS5VKc31ZPc1terXrenc76pOFcPHLNWbLrg9oeywimqllVjXaIrUeysEpn8/3Ia0RacVJy5kuuzb9mhZUx0Kkx4uU1gwDXSeJDeJ+kNhDhcb8rqEp9FLbGW5lh2DvAqj6YFfWaVPRN4nXHdN7QZnSRiDOW82vJzoVOy7icy/BThyFeFxW/EcYkaoMNC5V1WUu3TfMbpLWnxJOmyQ5tARQhsA0omNMdWwZKQ/kxNr0JSnQ4hId+62tPKh0vctZ/zTVcuc1dWKJ7qikgTtWBu5M8NkLzViNot/6teknFYOFslfhTMKEL4TDHZ2tzPUiMpthKpofz3OwQGXQB96Pa39+7ncaiVYpjtxxhVCiM2P0nVufFj6/m9HyXf2UsZy5eTre10olzTeZFvHya+XWXb4IbSmx6eX+yGXWmqtj4apu5c1siCtwqGe95MRwiAXfM0h5rnVSvqVrfQTQlpKJ61BqnujLDNYVpN55697sTbwtcM+1SfjZMEovQRwEDtZJEzqyXz3h8/k+5FU4xhuPy4rzwDxkySYMdJOPdaRq+gwVijKYCTPiKE8TpGJYyrsZWOvXXmQ0t+NtlW69RNPpMGEq+ib24uiowXHyqYSkjZZopzrtzKafXRc2pZ9kRJoyKDz3gkV0aueDPm9oa4LM26Rl07iUH5Za7PJvldyy19Fz6acAaZ/+0YYBaSb1u11NrTAileP5610uyTJz3De99nXCl92U4+u63gxMLtHNh/qdBy4uDlIhnA0+9+Gc8TQhLDXaj0/UOPnzAJ2a0l1UT/zztSkDGbB2hdyBphuYUjuMfbn8bKEvU6StTaqgY8LQyV3/NkEs++VR31ALM0ydnF4lu1NyNbZME6eIlFuY0nX/0/ysG6ejPK30LUR1pi4fIeQjs9HJeFnKsTum1qzHHEJ8iUlaBWVQGLoW8fdxakTe+4wyKHdmVi32ZYPfsrI4KQ9NigO+zIXwyxAbWAmkQpPVwVfbyfE95fP5PqQ1IkyhtGDNr0rdDZBHHW9fAoGmDBTsdlvnTKigkzC8AFjX34l/GkynQTdJbKRsdOSgJWk58Pcfw+V5ylT0TYzFWaqjFq5EsdNS5l2dhnygNlty0m0Gu/SefkQEeJmEGml75+6+YTro23Fn79nGC3YeYJj/JepwCbjdjvnsRZ2sxelXj+cmlQxEW1u6qE0KT13XJcHHy1Yi9dUmRBDHWorjZZLcTqx0drXpVK6Ltrglg9FaXMPTsY5IW3limDKj/S2fWs1X0TClpZVN7xDdEx1etDKok75pYx+POnviPOumnSaP2rDOnqPp4jM+DZ4Mtn1s5nXXUl2t1KUydfau4tuF1MzmTKbJJsyhNPPKhR3M+pqf52tzoHjaLonaYwwhOCMWuppy2djHghWXbDkQm3PKoG62Nwuhrxa7XEt1OVCv6nG8XIO3w3WXkExOqUvt0m0LZem3uH3K5zN9KHACsTiFdGFqgXve0rUjNEnLXKJthMMEMGWQdHCoUFbAyHluaJRqlAJlS8DGxQ8sSRfj1fluINI2WzAVfROTcZYqIptU9lRCe76z03qZCOHtKBeXxPL8IyJM2iSU3uvxfcN0yjo/bb74CJ4CKL3Uz7CX3gNMt5yYS3GaZq2JzIcWiFSK/apv7lK43tWUpfMu6juu69y29Gimgvuzl0wJP8zh6LMYiNdgqJbKG8D8XSb51MoTmE80OTGltWGjHcN7muNXoAyeJvBXZLWfr0euh0X26BwFEIAABCDwbAQkhUftnjuePDtZmNs99y+UwXMTf3h/dymDebH/8L5oAQEIQAAC5xM4neYnz04Wnu/BY7REGTwGxae1cVoZnD77tJ5hHQIQgAAE1kcAZbD8MZ3N/aI047uQyw8FDyEAAQhAYPEEUAaLHyIchAAEIAABCDwjAZTBM8KmKwhAAAIQgMDiCaAMFj9EOAgBCEAAAhB4RgIog2eETVcQgAAEIACBxRNAGSx+iHAQAhCAAAQg8IwEUAbPCJuuIAABCEAAAosngDJY/BDhIAQgAAEIQOAZCaAMnhE2XUEAAhCAAAQWTwBlsPghwkEIQAACEIDAMxJAGTwjbLqCAAQgAAEILJ4AymDxQ4SDEIAABCAAgWckgDJ4Rth0BQEIQAACEFg8AZTB4ocIByEAAQhAAALPSABl8Iyw6QoCEIAABCCweAIog8UPEQ5CAAIQgAAEnpEAyuAZYdMVBCAAAQhAYPEEUAaLHyIchAAEIAABCDwjAZTBM8KmKwhAAAIQgMDiCaAMFj9EOAgBCEAAAhB4RgIog2eETVcQgAAEIACBxRNAGSx+iHAQAhCAAAQg8IwElqoMbsbtJn6G/YOh7IdoYLPZXI23DzZCg8sisN9tNrs61+LxJVCI8cbjS4idGCEAgUhgycrgDDUQQxNlMFzHEo4hcCeB2/GqKcqLk5KXHPudE4MKELggAktVBteS1h++TxBHDmUQaXAMAQhAAAIQuBeBBSuD971jm1YGdZtUlEf5bMcbJSXPL9pxQWfqxCu3RrYb0T/1kArb+tRC7sDCpoXekLWgZt2ooxYfhUSvwl2d+tL6OhzM28PhULyKfTXHgz/9/LiND3DajvrhcIgby6VO6XQ2hDmSxSuzHB0+lHhFC8buxMVUTdyxkRPSZexaKDmE/+N3/0fhSy/140b2Oxs7sah1JuVpPwpiqdFuPjfzsbz5qd+njMyy1ZbBeZ1uPoH9UUjpKo5XLKnO2VhosD6XTsVezPB/CEBgzQQWqgzSEn/m5sG8Mtj4AqodldwgK3W/OJalcyo51RTbZ8FoRI4tE9eIWp6oi3tbmoMbNa+7J9K72Yn2S82W2NxJCdyb34yDvV8hdVr9PKtzFpReLNXVLFWTtDefDyE7mZK95vWeaihMldVFj+s0mS6R74fGVrRFw16C9ohyUEkZKPaZjas+QBm+1kUaylMp9pSRebYHtd/0Spx+N+P2artNF4uOY5gMara1PejZ5va9Y8/zhl8QgMAaCSxUGUTUeTmLZ04fzyuDthpq+7BApxSyHyyJxuQkbYLluDTLqWBNj5OAGD1FSVAzbsgpy2rqYiiJ9kumbAt9dTJlWW0d/xc8j8V9FElz1N41U5rQqbfUMyHkZBxISqfigwiX6rDmpxBvCFZdDPD7U1FGHIdgAaZhzdCkjiMN2VFBjWNOtGbRm5SioAyOCR+XtEZZiQYjqnJm2CYIMWpRBuMYtz2kZBisl1i5uBBK7h27QeAAAhBYLYFXoAzi2v2QcZhekdPCquZCSchhMZ2E5FRa+LuNYW3VUzFnyLGm0lYYbIZOa0ytxFrVcvnyhnI2fJosaPe+26teVUhzcdI/MbvXPty+depuiGNyM2r7FrVOc9iaxAcBMyRbUxEHV9vNZnvssJjtPyVMd8m7NM/twM+1o+6USpyuh7LFYtmxhibcAuFm73hCelKfamJm3YAcSTi+tSO/fePhFNs4G+P0U2VwG4Ld7zbDdeglnGqeOFJz8q7YW1O+IQCB9RJAGcR8JseWJDyDxrVYpkLQHHFpllNhIW57Br7ih6V5fun3xdpnnTeM9mvKr36Kk5po072mRmebH9Fztx6Vh5W6G+KqKoOYxuqeQbjX70qmSRbzmpuLMhh2Ijniq6Y9GYfvLpmXrpkckZ+sR92p7meoXn22HqfSvFbPoxCT+lQTQxG66qaKnPF5EvdCWpuIRWr6pz3fKcqgzTqdpcM+TsiJwB3pvWNvDvENAQisl8CrUAYhEz9gJKZbxRVWjeVqdXndDzFdWaqovYcmdyoD2ZFua3dYmk+4cXQqapcuJ4Wf1UkpCc8pgqvifPez0eyjmHqaIHXSPe6Rn9n4JMm2gSFqplEVO0HN9GZbtU55FNe98nEILThXD6VkvqZmxzFvCCXV0kwG7FoUknqGIGePS4qZE0biiJfKyYgTi7FU4KowdnuJWnRb6CVWLlZDyb1jLy35PwQgsGYCC1UG+52vyLIOWp6Wtazf1p4Zn7SYWh215hkuGZdKt+PVdhzLqtoaheSkRcFyWFv1VFiIdVEOf6qQbs1PuaEx+g269N60RVzopb/giTspPrRcG/0p+wfT9DIHtdD2A+RUOc6OnQpBfJsiGS1MO3yUFL1a3SOZIVOis2lz4g3EyEchtslWIvKXPMRbM6jDW/+XqHa3+3pDb+OlXgXdE6ycMnKKbZwP4mHrqykDfXi03V6V8tSLmrWIlEMc5fBmrhqpNaXVdAghGg4hAIEVEVisMvDd0rQqaWrxff5TIxGyZqgmy9xuX1Ze7cMWylqpW9mlNCYn+R0sx6VZTsWFWFfeuKQe7RnMuqFhNgTRQ7XZTvSyw9OYeFj1RDA1XAfPa7j+FZxx5dTfqQuKmiceSrLsgee8bqGVuCSZFbPuVgc/hON6sdWOIfgkCdhbxYTRXNLm5lIRIuFna5xHWUrDnkH7aWPUUq+3rkfig3XdGZlnqyNrNuP0M2VQHkbUidf3EhHF3k/ELqfiND6KhAIIQGBlBBaqDJ6OcllzT9jvVvkTNd/n1J1uvI/x52l7ZwjPQ/J5gn3mXu5k+8z+0B0EIHBRBFAG3XD391jd6cf6uYKl/64QnonkY43IouzcxXZRzuIMBCCwNgIogzyi3d51PvmIv1aw9N8RwnORfMRBWY6pO9gux1E8gQAE1kgAZWCjGp7NW9mTHaxg6Z8P4VlJPtkQvaThebYv6RV9QwACF0Lg4pTBhYwrYUIAAhCAAATOI4AyOI8brSAAAQhAAALrJIAyWOe4EhUEIAABCEDgPAIog/O40QoCEIAABCCwTgIog3WOK1FBAAIQgAAEziOAMjiPG60gAAEIQAAC6ySAMljnuBIVBCAAAQhA4DwCKIPzuNEKAhCAAAQgsE4CKIN1jitRQQACEIAABM4jgDI4jxutIAABCEAAAuskgDJY57gSFQQgAAEIQOA8AiiD87jRCgIQgAAEILBOAiiDdY4rUUEAAhCAAATOI4AyOI8brSAAAQhAAALrJIAyWOe4EhUEIAABCEDgPAIog/O40QoCEIAABCCwTgIog3WOK1FBAAIQgAAEziOAMjiPG60gAAEIQAAC6ySAMljnuBIVBCAAAQhA4DwCKIPzuNEKAhCAAAQgsE4CKIN1jitRQQACEIAABM4jgDI4jxutIAABCEAAAuskgDJY57gSFQQgAAEIQOA8AiiD87jRCgIQgAAEILBOAiiDdY4rUUEAAhCAAATOI4AyOI8brSAAAQhAAALrJIAyWOe4EhUEIAABCEDgPAIog/O40QoCEIAABCCwTgIog3WOK1FBAAIQgAAEziOAMjiPG60gAAEIQAAC6ySAMljnuBIVBCAAAQhA4DwCKIPzuNEKAhCAAAQgsE4CKIOnGtfbcbvZbIbrp7KPXQg8O4H9sNlsrsbbZ++YDiEAgeck8LLKQBeajX+2r3/NKYJgs9msIJbnnIj0tWACdp0O+wV7iWsQgMBjEXhBZSDLTUift+NV/PlYAT6vneuBO6rnJU5vT01ALky2vp6aMvYhsCgCL6cMrofNJt6CrEAZsIYuam7jzGMQQOw+BkVsQOB1EXgtysD2M3Wf/qZCtq17eSCxs53OWLnfh9jvJh9exCZBr4h8mbYwdRe1Hzbb8VrfLyiduEvq8E04tdmOLYrDQSSFfYLlpJaK5+Hs8UyLUWzHG/3pPshP26SJ6Nzm6XjF/+j24dDLu+BSCjYgPRziEPiopfpxNINNdc9ABWXZaTLlWR+HRyYt/CO3hcZE/eT2IXnYOEhhqKZ1KuRUP952R5e8rWDxwerYnghQeNqwHipeN+v4xJ/teKNwJubntFdCZrcPQ9YCr3aDNX+rJpoqPWmrI+xqQyxE/83h0KmNeYurmvKOOgtxekeqyWYZ8dOm4iD6CxYl6uZM8bjUbHW0o45V8ba1eiANw8IBBJ6BwMspg4NeJ74Uzi4QZUW2K/92HEpO1WuvXWYluZbL8mYc7H0Fufzi9Sm9aCJM3ZnNurC2y1sy39V2az9lQOpi5NnURikvDbWmB3jQQNThukaXlpmDGmnBupO60lmw1mU4SA0PNaLQkeBqzoREWLxqeeuOeN2f6nqwGVzRQ7vXPFoBLZMFlwRCi1qlQ3M1mc2mQnMbVqles8KpySDdhRH0uGZnwmFm+ISwjYvYcSl5PVgXcfjmugjhNIDZcrbmbwIaT2kmiOTNV5PJDlBnSLgc0sQ75VVgpYHYBZUsdNdpHYg4jnn4mmMOv5XU71NAujDz5JeGTkAHpV3Cvc1jYr0pI6l2aji3oywLcQrlWaf6bHu1tSktIXU+P5BGB4efEHhSAi+oDCQuvYbthsBzQ4x54mKuy7StUFpdLulcUq9Gu7ZLXi91ZtejdB98PWx2YxMT2ouUDDmvNGfFgdhXWQuCS5Ysg6spSaulUFKdzMtx6y5/T1MqhHf7FJSIm+CV1Sm4TsdrIUjvvZ3okfhcltF+BZSgSpJznwOQOitiRjG72VTIiG5T89N2HKde+AjN3b2Y8q2jchDqS4HFHr0Ng14Gbsx38MVSOTXxSn/owmlM9H4qwMBBFc94NA+LQXE1JbM8K0ol/X/2KqW3IsF1dI6D6krkZxzHYDZ0Vid5KKmHp4CIqTSHves4OsVSKOltFNhOTQAAB39JREFU1iVixlT2ybsQCN0ck5JhZztPsrINeSCkZBceoT6QRvaFXxB4WgIvqwxkIWvrztwCEdbEiMKWaS+MNeVYPnFhSjmg704ue/+0BC86YB8WOF0RdJfebuC8/5AkWqGu1O0PF91OXqoagdbI7aiTV9tuEbR9C/W3LGox9manfuuNXUwJYv/oU0DdHW9QAxND4F17uupXQLcQluk0HKHcDcqRmPJP4GbhNzvJNymUT5wMDlnv9sKp6ZlQtiJKtTB8x/tAHrh4XOEHV6V0sos+6sTtVIDWY7UQQkv4otvlRC6Z82rCeb0Ft369l9y1T/hSIw9fe3zThsyt1KNTQBIcrW8laeiLKaM3tR1lDc2BXCJu2KfuPdg60CSFXThhc2K49n5lnlyNt9GyHIePW7Yl0RziAALPTeAllYGuRC0H671ItwYpjHB1RTgnr3+vKJdfu3rj4p660+W7XdLpRkoveL85Lpe3LvczysD7Uh+SMvCVNKzIXmhO+/IqscvjjJjXrVo6mKEkddRItOD2kwn5cY94zWG5B2qi58iQp//EM4mzbpmuSbQuliFVu/G4sJatjrCeDteacUvJxPTotnCMWFnlSyfzM0G7q/MzDF9TBmKtnDU+7naVAmWqz3ZxKhHqIM4FWHs0OHPjG90uznnJvb0qsSjkiUhz11PKIF3vqtUcXSQ2sXVkAVaNaKa0nZ2dGHob627K5YbWvZmScFxQSjg+3+RKtwDLtRAq6J7Bte8z3Y76ZMEs9yGIh6dpmHccQOAZCLygMuhWhO6nx96vmOWML2qt5nGJnIlmZflrySyUx8u1u2JrppTrfDve1st7ThmkvtSr5FLoPZTH1aREEkqak+Khed7izd/TlMo6PvE0YcbafeJ1eZSX5uBPCKHkY68ZTyWfhUn1KpUHs73I8IETULp525TZRHroJkOTQTUc7cYNHv+cHr6iDGTbuOaMOlWi13rcms930Uedap4KUCfn6HNbSDpw9yTMulLoY5H6ykPWnQrPnrx566MrkZ9R4WVT7Wyb5M2IfZ8Ckk0lGXEUpo5RnRi9ze56176tzkQ4WRk0XbgfFHis33RzkchNfUa347Fdp8driOHgAALPSODllIFcGG0dl4BnFwi9/HyHzV6VkgvYV0BpXpeh8OZXaVvUQLxuU3dpKZEV3M22TCk5Se7dy4LbVvnjcUpBqam2Mqbej3ts1aLDyUmxPJPOixti84iS+xP4lMXd0bXXFcsqWTw5Fa8uc6M8ZzkGoCWZj/hgiSqdsiW4RGoGQ3nuIZkKOwQ6efzVvxJIWcRnJkPzU+SE71Qdj0vzfHb4FHucyXYnbRNV+rKBmO+ijzoFq8MXxlcnZH3PVi+ENvnzrkzCV11tY6E/J3ZB6hOQVq2wbWMtHPyyTTM8T13pWSq3hg1CMqu9z174p4AIHH8HU/H61aFAUkfmRm+zDs2MqTgEhV6nDMqq1d40jJOkKQNVileNQzQYj331cxqK2qJII8kPCDw1gZdSBrrStdssDdIviYmY66KmO82hVV0TtdjX97JqaKFlU73MWlH81pUrnB328Yo1ZZDWx5Teem9D780lDdbX0/KWe1RFusJWr2J5YlKdjEtt13dHKS79NWG4dIjobN2UFbbaV5/rcR+vehL9jH7EWCLo7fi/dTUP/tsy3Rm08mhXjgNbNW3rpnobJoYnztyk7RhVwwrBjEjh1Ew4OXwd5PDQIZia+1PbNNnSiDi5wnk+wCOdpxk6BVWjFVfTX9W2+TkXeG1XdVt1qbMch7ufEkIgDHc/fJ5lfVpal2kboJR2F+am0Gtu5QdbEWYMc2JqFbNhnsRJ4nauxr3vDLU9gKj5yuRpk9CUQRJMfQg+zG3PSQa6OKzzp6Md8XAMgSck8FLK4AlDmjTdL1JaabJwsjmFkYBwaytgLNfj8IaBn5ss9NMvdTSRJ17Klel+H5VbUQb+r2hMd/k6SmOKfU+PH9HUe3pCcwgshgDKYG5LfDFDtDhH/LZmyrXJZDZZONX6Wcv6vZBn7fxenT0qN5TBJHOUwSQWCi+bwKUog8se5UeNfi0r6cmdj0clthBjKIPJgVjLfJ4MjkIInEcAZXAet8tsVR4q94+TXx8LyZHhPdPXF8BZHqMMJrGhDCaxUHjZBFAGlz3+RA8BCEAAAhDIBFAGmQe/IAABCEAAApdNAGVw2eNP9BCAAAQgAIFMAGWQefALAhCAAAQgcNkEUAaXPf5EDwEIQAACEMgEUAaZB78gAAEIQAACl00AZXDZ40/0EIAABCAAgUwAZZB58AsCEIAABCBw2QRQBpc9/kQPAQhAAAIQyARQBpkHvyAAAQhAAAKXTQBlcNnjT/QQgAAEIACBTABlkHnwCwIQgAAEIHDZBFAGlz3+RA8BCEAAAhDIBFAGmQe/IAABCEAAApdNAGVw2eNP9BCAAAQgAIFMAGWQefALAhCAAAQgcNkEUAaXPf5EDwEIQAACEMgEUAaZB78gAAEIQAACl00AZXDZ40/0EIAABCAAgUwAZZB58AsCEIAABCBw2QRQBpc9/kQPAQhAAAIQyAT+PwwWNyB/Lu4UAAAAAElFTkSuQmCC;" vertex="1" parent="1">
          <mxGeometry x="460" y="-1148" width="691" height="318" as="geometry" />
        </mxCell>
        <mxCell id="00AORRnr6HmbrCj2hi4w-12" style="edgeStyle=orthogonalEdgeStyle;rounded=0;orthogonalLoop=1;jettySize=auto;html=1;exitX=0.5;exitY=1;exitDx=0;exitDy=0;" edge="1" parent="1" source="00AORRnr6HmbrCj2hi4w-13" target="00AORRnr6HmbrCj2hi4w-15">
          <mxGeometry relative="1" as="geometry" />
        </mxCell>
        <mxCell id="00AORRnr6HmbrCj2hi4w-13" value="Начало" style="ellipse;whiteSpace=wrap;html=1;" vertex="1" parent="1">
          <mxGeometry x="152.5" y="-1070" width="120" height="80" as="geometry" />
        </mxCell>
        <mxCell id="00AORRnr6HmbrCj2hi4w-23" style="edgeStyle=orthogonalEdgeStyle;rounded=0;orthogonalLoop=1;jettySize=auto;html=1;entryX=0.5;entryY=0;entryDx=0;entryDy=0;" edge="1" parent="1" source="00AORRnr6HmbrCj2hi4w-15" target="00AORRnr6HmbrCj2hi4w-21">
          <mxGeometry relative="1" as="geometry" />
        </mxCell>
        <mxCell id="00AORRnr6HmbrCj2hi4w-15" value="Ввод данных&lt;br&gt;(координаты и радиус)" style="rounded=1;whiteSpace=wrap;html=1;" vertex="1" parent="1">
          <mxGeometry x="122.5" y="-960" width="180" height="80" as="geometry" />
        </mxCell>
        <mxCell id="00AORRnr6HmbrCj2hi4w-25" style="edgeStyle=orthogonalEdgeStyle;rounded=0;orthogonalLoop=1;jettySize=auto;html=1;exitX=0.5;exitY=1;exitDx=0;exitDy=0;" edge="1" parent="1" source="00AORRnr6HmbrCj2hi4w-17">
          <mxGeometry relative="1" as="geometry">
            <mxPoint x="213" y="-630" as="targetPoint" />
          </mxGeometry>
        </mxCell>
        <mxCell id="00AORRnr6HmbrCj2hi4w-17" value="Расчет площади и периметра:&amp;nbsp;" style="rounded=1;whiteSpace=wrap;html=1;" vertex="1" parent="1">
          <mxGeometry x="95" y="-725" width="235" height="60" as="geometry" />
        </mxCell>
        <mxCell id="00AORRnr6HmbrCj2hi4w-26" value="" style="edgeStyle=orthogonalEdgeStyle;rounded=0;orthogonalLoop=1;jettySize=auto;html=1;" edge="1" parent="1" source="00AORRnr6HmbrCj2hi4w-19" target="00AORRnr6HmbrCj2hi4w-22">
          <mxGeometry relative="1" as="geometry" />
        </mxCell>
        <mxCell id="00AORRnr6HmbrCj2hi4w-19" value="Поиск окружностей с максимальными и минимальными значениями площади" style="rounded=1;whiteSpace=wrap;html=1;" vertex="1" parent="1">
          <mxGeometry x="113.75" y="-629" width="197.5" height="90" as="geometry" />
        </mxCell>
        <mxCell id="00AORRnr6HmbrCj2hi4w-20" value="Конец" style="ellipse;whiteSpace=wrap;html=1;" vertex="1" parent="1">
          <mxGeometry x="152.5" y="-400" width="120" height="80" as="geometry" />
        </mxCell>
        <mxCell id="00AORRnr6HmbrCj2hi4w-24" style="edgeStyle=orthogonalEdgeStyle;rounded=0;orthogonalLoop=1;jettySize=auto;html=1;exitX=0.5;exitY=1;exitDx=0;exitDy=0;entryX=0.5;entryY=0;entryDx=0;entryDy=0;" edge="1" parent="1" source="00AORRnr6HmbrCj2hi4w-21" target="00AORRnr6HmbrCj2hi4w-17">
          <mxGeometry relative="1" as="geometry" />
        </mxCell>
        <mxCell id="00AORRnr6HmbrCj2hi4w-21" value="Добавление окружности в список" style="rounded=1;whiteSpace=wrap;html=1;" vertex="1" parent="1">
          <mxGeometry x="129.5" y="-840" width="166" height="80" as="geometry" />
        </mxCell>
        <mxCell id="00AORRnr6HmbrCj2hi4w-27" value="" style="edgeStyle=orthogonalEdgeStyle;rounded=0;orthogonalLoop=1;jettySize=auto;html=1;" edge="1" parent="1" source="00AORRnr6HmbrCj2hi4w-22" target="00AORRnr6HmbrCj2hi4w-20">
          <mxGeometry relative="1" as="geometry" />
        </mxCell>
        <mxCell id="00AORRnr6HmbrCj2hi4w-22" value="Группировка окружностей по прямой" style="rounded=1;whiteSpace=wrap;html=1;" vertex="1" parent="1">
          <mxGeometry x="152.5" y="-500" width="120" height="60" as="geometry" />
        </mxCell>
      </root>
    </mxGraphModel>
  </diagram>
</mxfile>
